<svg width="80" height="41" viewBox="0 0 80 41" fill="none" xmlns="http://www.w3.org/2000/svg">
    <path d="M79.126 27.4303C72.0083 22.4215 52.7115 12.2459 32.4656 11.6132C7.15829 10.8223 -2.33196 27.4303 2.01774 37.3159C6.36744 47.2016 47.0965 25.4534 79.126 11.6132" stroke="white" stroke-linecap="round" stroke-linejoin="round"/>
    <path d="M22.7437 6.26901C22.7437 10.0246 18.5708 15.5537 16.4844 17.8487C18.4874 15.8467 33.3845 15.3446 40.5828 15.3439C42.7735 12.839 35.5753 -1.24333 36.5142 1.88691C37.2653 4.39111 34.5321 9.81596 33.0716 12.2154C32.237 7.20772 30.6304 -1.86868 30.8808 1.88691C31.1312 5.6425 27.4382 10.3374 25.5604 12.2154C24.6215 8.66841 22.7437 2.51342 22.7437 6.26901Z" stroke="white" stroke-linecap="round" stroke-linejoin="round"/>
    <path d="M24.1621 31.1875C26.0074 30.5285 32.0311 30.1594 41.3632 33.9555C41.6268 32.9669 40.9678 30.0011 36.2226 26.0469" stroke="white" stroke-linecap="round" stroke-linejoin="round"/>
</svg>