<svg width="116" height="31" xmlns="http://www.w3.org/2000/svg"><g fill="#000" fill-rule="evenodd"><path d="M2.208 18.976c1.392-3.144 3.12-6.336 4.368-8.592 1.032-1.8 1.728-3.192 1.704-4.056 1.296-.216 2.688-.432 3.72-.312.552.048.648-.24.528-.528-.36-1.008-1.368-1.296-2.472-1.296-1.392 0-5.232.648-7.32.648-.336 0-.528.144-.456.456.264.936 1.296 1.488 2.856 1.488.336 0 .672-.048 1.032-.096-2.112 3.264-4.536 8.136-5.136 10.128a3.452 3.452 0 00-.144.96c0 .6.144.984.504 1.32.336.336.624.312.816-.12zm10.805.408c1.536 0 3.096-1.2 3.792-2.592.36-.72.192-1.272.072-1.56-.192-.408-.576-.36-.744 0-.72 1.464-1.992 3.168-2.832 3.168-.336 0-.456-.312-.456-.816 0-.384.096-.888.312-1.416.264-.576.864-1.584 2.184-3.936.192-.336.264-.672.264-1.008 0-.936-.696-1.68-1.392-1.68-.456 0-1.296.288-2.016.816.24-.336 1.728-2.568 2.208-3.36.576-1.008.864-1.896.864-2.544 0-.336-.072-.648-.192-.912-.216-.48-.576-.576-.96-.096-1.944 2.496-6.696 10.536-7.656 13.056-.6 1.584-.264 2.16.12 2.616.288.36.648.288.84-.144.576-1.44 1.44-3.096 2.256-4.44 1.272-2.064 3.552-3.576 3.768-3.576.168 0-.192.576-.648 1.368-.912 1.416-2.088 3.504-2.088 5.016 0 1.248.72 2.04 2.304 2.04zm5.79 0c1.872-.024 3.792-1.152 4.8-2.616.432-.648.408-1.344.336-1.56-.192-.48-.504-.432-.768-.048-.984 1.488-2.592 3.264-4.416 3.264-.72 0-1.152-.744-1.152-1.8 0-.432.072-.936.216-1.416.552.36 1.128.528 1.704.528 2.112 0 3.72-2.52 3.72-3.96 0-.312-.096-.672-.24-.888-.336-.48-.816-.864-1.488-1.248-.24-.144-.504-.192-.84-.192-1.392 0-3.336 1.272-4.584 3.816-.504.96-.744 1.896-.744 2.76 0 1.92 1.224 3.384 3.456 3.36zm-.12-4.92a.97.97 0 01-.528-.168c1.152-2.304 2.928-3.768 3.288-3.48.264.216-.24 1.344-.936 2.28-.48.648-1.248 1.368-1.824 1.368z" fill-rule="nonzero"/><path d="M114.895 26.656s-.18 1.077-.81 1.527c-.633.45-1.786.657-2.926.403-1.14-.255-2.63-1.246-3.22-2.28a3.711 3.711 0 00-2.6-1.8c-.675-.112-2.027-.013-2.842.27-.816-.283-2.169-.382-2.842-.27a3.709 3.709 0 00-2.602 1.8c-.59 1.034-2.08 2.025-3.22 2.28-1.14.254-2.293.048-2.924-.403-.63-.45-.812-1.527-.812-1.527s-.471 1.717.664 2.569c1.136.853 2.416 1.108 3.636 1.091 1.22-.017 2.642-.301 3.523-.572.88-.273 1.521-.436 2.776-1.107.305-.163 1.444-.732 1.8-.973.357.24 1.496.81 1.802.973 1.254.67 1.894.834 2.775 1.107.881.27 2.302.555 3.523.572 1.22.017 2.499-.238 3.635-1.091 1.137-.852.664-2.569.664-2.569M103.273 0a6.841 6.841 0 016.237 4.029c2.486 1.007 4.235 3.413 4.235 6.221 0 3.192-2.26 5.862-5.29 6.551.587 2.509 1.149 4.84 1.149 4.84s-8.485-1.304-14.433.662c.187-1.342.752-4.222 1.282-6.764l-.054.256v-.27c-2.829-.694-4.947-3.159-5.063-6.131l-.005-.258c0-3.609 2.953-6.539 6.612-6.582A6.829 6.829 0 01103.273 0z"/><path d="M37.272 27.324a7.964 7.964 0 004.644-1.476c1.296-.972 3.24-3.06 3.24-5.148 0-.36-.072-.792-.252-1.188-.36-.828-1.188-.612-1.44-.108-2.088 3.996-4.644 6.3-6.624 6.3-1.296 0-2.664-1.368-2.664-4.464 0-2.16.684-5.112 2.268-7.668 2.988-4.824 8.1-7.956 8.964-7.02.432.468 0 1.62-.504 2.88-.216.54-.468 1.116-.612 1.656-.144.468-.216.9-.216 1.332 0 1.044.504 1.836 1.224 2.304.72.432 1.224.072 1.404-.54.252-.792.756-2.016 1.368-3.24.36-.72.504-1.44.504-2.088 0-1.404-.936-2.808-2.16-3.888-.612-.504-1.44-.756-2.34-.756-.9 0-1.908.252-2.844.612-4.068 1.836-10.512 8.352-10.368 15.624.072 2.952 1.548 5.22 3.24 6.12.9.504 1.98.756 3.168.756zm25.136.216c.54 0 .972-.108 1.296-.216 2.736-.936 5.04-4.464 5.796-7.452.396-.072.684-.216.936-.504.288-.36.216-.684-.72-.684.324-3.06-.684-3.312-1.692-4.5-.684-.936-1.332-1.332-2.376-1.332-2.196 0-3.636 1.44-5.112 2.952-.828 1.08-1.98 2.16-3.096 2.52.18-2.664-.72-2.952-1.728-4.14-.684-.936-1.332-1.332-2.376-1.332-2.376 0-4.644 1.8-6.264 4.68-.936 1.692-1.512 3.456-1.512 5.04 0 1.152.324 2.232 1.008 3.132 1.008 1.332 2.34 1.836 3.528 1.836.54 0 .972-.108 1.296-.216 2.736-.936 5.04-4.464 5.796-7.452a7.69 7.69 0 001.26-.216c-.396 1.08-.576 1.908-.576 2.916 0 1.152.324 2.232 1.008 3.132 1.008 1.332 2.34 1.836 3.528 1.836zm4.608-9.576c-.396-.468-.576-1.404-.576-2.052 0-.576.324-.864.54-.864.252 0 .54.216.54.756 0 .468-.144 1.332-.504 2.16zm-12.312 0c-.396-.468-.576-1.404-.576-2.052 0-.576.324-.864.54-.864.252 0 .54.216.54.756 0 .468-.144 1.332-.504 2.16zm6.84 7.74c-.54 0-.864-.432-.864-1.512 0-1.332.576-3.348 1.512-5.076.612-1.08 1.296-1.98 2.052-2.7.288 1.26 1.044 2.196 2.196 2.916-.216.756-.648 1.656-1.188 2.592-1.332 2.448-2.772 3.78-3.708 3.78zm-12.312 0c-.54 0-.864-.432-.864-1.512 0-1.332.576-3.348 1.512-5.076.612-1.08 1.296-1.98 2.052-2.7.288 1.26 1.044 2.196 2.196 2.916-.216.756-.648 1.656-1.188 2.592-1.332 2.448-2.772 3.78-3.708 3.78zm29.132 1.692c3.06.036 4.896-2.556 5.58-3.816.54-.936.612-1.836.432-2.304-.324-.9-.792-.828-1.224.036-1.008 2.088-2.988 4.608-4.212 4.608-1.08 0-1.944-1.98-2.088-4.68 2.124-.72 3.6-1.728 4.752-2.844.9-.864 1.26-1.764 1.26-2.628 0-.612-.144-1.188-.432-1.728-.792-1.656-1.764-2.232-3.384-1.656-.612.216-1.224.468-1.872.936 2.16-3.924 3.78-6.66 3.78-8.064 0-.504-.144-.972-.36-1.404-.396-.756-.972-.756-1.548-.036-3.168 4.356-8.352 14.508-9.972 19.116-.36 1.044-.468 1.836-.468 2.412 0 .756.216 1.26.576 1.656.432.54 1.008.36 1.26-.144 1.152-2.7 2.124-4.896 3.096-6.624 0 5.04 2.16 7.128 4.824 7.164zm-4.428-7.956c1.08-1.8 2.088-3.096 3.312-4.032 1.656-1.26 2.916-1.692 3.204-1.26.324.468-.324 1.656-1.764 2.844-1.188.972-3.708 2.088-4.752 2.448z" fill-rule="nonzero"/></g></svg>