<?xml version="1.0" encoding="UTF-8"?>
<svg width="116px" height="31px" viewBox="0 0 116 31" version="1.1" xmlns="http://www.w3.org/2000/svg" xmlns:xlink="http://www.w3.org/1999/xlink">
    <title>Group 3</title>
    <g id="Page-1" stroke="none" stroke-width="1" fill="none" fill-rule="evenodd">
        <g id="Group-3" transform="translate(0.888000, 0.000000)" fill="#000000">
            <path d="M1.32,18.976 C2.712,15.832 4.44,12.64 5.688,10.384 C6.72,8.584 7.416,7.192 7.392,6.328 C8.688,6.112 10.08,5.896 11.112,6.016 C11.664,6.064 11.76,5.776 11.64,5.488 C11.28,4.48 10.272,4.192 9.168,4.192 C7.776,4.192 3.936,4.84 1.848,4.84 C1.512,4.84 1.32,4.984 1.392,5.296 C1.656,6.232 2.688,6.784 4.248,6.784 C4.584,6.784 4.92,6.736 5.28,6.688 C3.168,9.952 0.744,14.824 0.144,16.816 C0.048,17.128 -1.42108547e-14,17.488 -1.42108547e-14,17.776 C-1.42108547e-14,18.376 0.144,18.76 0.504,19.096 C0.84,19.432 1.128,19.408 1.32,18.976 Z M12.1253333,19.384 C13.6613333,19.384 15.2213333,18.184 15.9173333,16.792 C16.2773333,16.072 16.1093333,15.52 15.9893333,15.232 C15.7973333,14.824 15.4133333,14.872 15.2453333,15.232 C14.5253333,16.696 13.2533333,18.4 12.4133333,18.4 C12.0773333,18.4 11.9573333,18.088 11.9573333,17.584 C11.9573333,17.2 12.0533333,16.696 12.2693333,16.168 C12.5333333,15.592 13.1333333,14.584 14.4533333,12.232 C14.6453333,11.896 14.7173333,11.56 14.7173333,11.224 C14.7173333,10.288 14.0213333,9.544 13.3253333,9.544 C12.8693333,9.544 12.0293333,9.832 11.3093333,10.36 C11.5493333,10.024 13.0373333,7.792 13.5173333,7 C14.0933333,5.992 14.3813333,5.104 14.3813333,4.456 C14.3813333,4.12 14.3093333,3.808 14.1893333,3.544 C13.9733333,3.064 13.6133333,2.968 13.2293333,3.448 C11.2853333,5.944 6.53333333,13.984 5.57333333,16.504 C4.97333333,18.088 5.30933333,18.664 5.69333333,19.12 C5.98133333,19.48 6.34133333,19.408 6.53333333,18.976 C7.10933333,17.536 7.97333333,15.88 8.78933333,14.536 C10.0613333,12.472 12.3413333,10.96 12.5573333,10.96 C12.7253333,10.96 12.3653333,11.536 11.9093333,12.328 C10.9973333,13.744 9.82133333,15.832 9.82133333,17.344 C9.82133333,18.592 10.5413333,19.384 12.1253333,19.384 Z M17.9146667,19.384 C19.7866667,19.36 21.7066667,18.232 22.7146667,16.768 C23.1466667,16.12 23.1226667,15.424 23.0506667,15.208 C22.8586667,14.728 22.5466667,14.776 22.2826667,15.16 C21.2986667,16.648 19.6906667,18.424 17.8666667,18.424 C17.1466667,18.424 16.7146667,17.68 16.7146667,16.624 C16.7146667,16.192 16.7866667,15.688 16.9306667,15.208 C17.4826667,15.568 18.0586667,15.736 18.6346667,15.736 C20.7466667,15.736 22.3546667,13.216 22.3546667,11.776 C22.3546667,11.464 22.2586667,11.104 22.1146667,10.888 C21.7786667,10.408 21.2986667,10.024 20.6266667,9.64 C20.3866667,9.496 20.1226667,9.448 19.7866667,9.448 C18.3946667,9.448 16.4506667,10.72 15.2026667,13.264 C14.6986667,14.224 14.4586667,15.16 14.4586667,16.024 C14.4586667,17.944 15.6826667,19.408 17.9146667,19.384 Z M17.7946667,14.464 C17.6266667,14.464 17.4586667,14.416 17.2666667,14.296 C18.4186667,11.992 20.1946667,10.528 20.5546667,10.816 C20.8186667,11.032 20.3146667,12.16 19.6186667,13.096 C19.1386667,13.744 18.3706667,14.464 17.7946667,14.464 Z" id="The" fill-rule="nonzero"></path>
            <g id="Group-2" transform="translate(89.112000, 0.000000)">
                <path d="M24.8951846,26.6561597 C24.8951846,26.6561597 24.7154726,27.7327677 24.0848166,28.1828797 C23.4524966,28.6338237 22.2993446,28.8401597 21.1586726,28.5855677 C20.019831,28.3309757 18.5292198,27.3395645 17.9394982,26.3063869 C17.3506086,25.2732093 16.3235878,24.6665149 15.3383334,24.5054397 C14.6644134,24.3941181 13.3120806,24.4934589 12.4967206,24.7760061 C11.6811942,24.4934589 10.3283622,24.3941181 9.65510783,24.5054397 C8.66835583,24.6665149 7.64150143,25.2732093 7.05311103,26.3063869 C6.46355583,27.3395645 4.97361023,28.3309757 3.83343743,28.5855677 C2.69376383,28.8401597 1.54044543,28.6338237 0.908624628,28.1828797 C0.278135028,27.7327677 0.0969254284,26.6561597 0.0969254284,26.6561597 C0.0969254284,26.6561597 -0.374319372,28.3725757 0.761360628,29.2245437 C1.89720703,30.0781757 3.17698943,30.3327677 4.39720063,30.3161277 C5.61724543,30.2994877 7.03863423,30.0149437 7.92022143,29.7437117 C8.80047743,29.4708157 9.44111743,29.3077437 10.6957734,28.6371517 C11.000951,28.4740797 12.139959,27.9046589 12.4967206,27.6642109 C12.8534822,27.9046589 13.9916582,28.4740797 14.298167,28.6371517 C15.5516582,29.3077437 16.1921318,29.4708157 17.0730534,29.7437117 C17.953975,30.0149437 19.3748646,30.2994877 20.5962406,30.3161277 C21.8162854,30.3327677 23.0947366,30.0781757 24.2312486,29.2245437 C25.3677606,28.3725757 24.8951846,26.6561597 24.8951846,26.6561597" id="Fill-3051"></path>
                <path d="M13.2733952,3.55271368e-15 C16.04928,3.55271368e-15 18.43712,1.6536832 19.5100672,4.0290432 C21.9957504,5.0362624 23.7446144,7.4420736 23.7446144,10.25024 C23.7446144,13.4419584 21.4849024,16.1121792 18.4542592,16.801408 C19.041984,19.3097216 19.603584,21.6404864 19.603584,21.6404864 C19.603584,21.6404864 11.1190144,20.3367424 5.1713792,22.3032576 C5.3575808,20.9607424 5.9226752,18.0805248 6.4531584,15.5387648 L6.3992,15.795 L6.39983965,15.5259042 C3.57001136,14.8311512 1.45237774,12.3659513 1.33622453,9.39392751 L1.3312,9.1363584 C1.3312,5.5273088 4.283968,2.5971712 7.9427712,2.5535744 C9.1970944,0.996736 11.1183488,3.55271368e-15 13.2733952,3.55271368e-15 Z" id="Combined-Shape"></path>
            </g>
            <path d="M36.384,27.324 C37.932,27.324 39.552,26.892 41.028,25.848 C42.324,24.876 44.268,22.788 44.268,20.7 C44.268,20.34 44.196,19.908 44.016,19.512 C43.656,18.684 42.828,18.9 42.576,19.404 C40.488,23.4 37.932,25.704 35.952,25.704 C34.656,25.704 33.288,24.336 33.288,21.24 C33.288,19.08 33.972,16.128 35.556,13.572 C38.544,8.748 43.656,5.616 44.52,6.552 C44.952,7.02 44.52,8.172 44.016,9.432 C43.8,9.972 43.548,10.548 43.404,11.088 C43.26,11.556 43.188,11.988 43.188,12.42 C43.188,13.464 43.692,14.256 44.412,14.724 C45.132,15.156 45.636,14.796 45.816,14.184 C46.068,13.392 46.572,12.168 47.184,10.944 C47.544,10.224 47.688,9.504 47.688,8.856 C47.688,7.452 46.752,6.048 45.528,4.968 C44.916,4.464 44.088,4.212 43.188,4.212 C42.288,4.212 41.28,4.464 40.344,4.824 C36.276,6.66 29.832,13.176 29.976,20.448 C30.048,23.4 31.524,25.668 33.216,26.568 C34.116,27.072 35.196,27.324 36.384,27.324 Z M61.52,27.54 C62.06,27.54 62.492,27.432 62.816,27.324 C65.552,26.388 67.856,22.86 68.612,19.872 C69.008,19.8 69.296,19.656 69.548,19.368 C69.836,19.008 69.764,18.684 68.828,18.684 C69.152,15.624 68.144,15.372 67.136,14.184 C66.452,13.248 65.804,12.852 64.76,12.852 C62.564,12.852 61.124,14.292 59.648,15.804 C58.82,16.884 57.668,17.964 56.552,18.324 C56.732,15.66 55.832,15.372 54.824,14.184 C54.14,13.248 53.492,12.852 52.448,12.852 C50.072,12.852 47.804,14.652 46.184,17.532 C45.248,19.224 44.672,20.988 44.672,22.572 C44.672,23.724 44.996,24.804 45.68,25.704 C46.688,27.036 48.02,27.54 49.208,27.54 C49.748,27.54 50.18,27.432 50.504,27.324 C53.24,26.388 55.544,22.86 56.3,19.872 C56.696,19.836 57.164,19.764 57.56,19.656 C57.164,20.736 56.984,21.564 56.984,22.572 C56.984,23.724 57.308,24.804 57.992,25.704 C59,27.036 60.332,27.54 61.52,27.54 Z M66.128,17.964 C65.732,17.496 65.552,16.56 65.552,15.912 C65.552,15.336 65.876,15.048 66.092,15.048 C66.344,15.048 66.632,15.264 66.632,15.804 C66.632,16.272 66.488,17.136 66.128,17.964 Z M53.816,17.964 C53.42,17.496 53.24,16.56 53.24,15.912 C53.24,15.336 53.564,15.048 53.78,15.048 C54.032,15.048 54.32,15.264 54.32,15.804 C54.32,16.272 54.176,17.136 53.816,17.964 Z M60.656,25.704 C60.116,25.704 59.792,25.272 59.792,24.192 C59.792,22.86 60.368,20.844 61.304,19.116 C61.916,18.036 62.6,17.136 63.356,16.416 C63.644,17.676 64.4,18.612 65.552,19.332 C65.336,20.088 64.904,20.988 64.364,21.924 C63.032,24.372 61.592,25.704 60.656,25.704 Z M48.344,25.704 C47.804,25.704 47.48,25.272 47.48,24.192 C47.48,22.86 48.056,20.844 48.992,19.116 C49.604,18.036 50.288,17.136 51.044,16.416 C51.332,17.676 52.088,18.612 53.24,19.332 C53.024,20.088 52.592,20.988 52.052,21.924 C50.72,24.372 49.28,25.704 48.344,25.704 Z M77.476,27.396 C80.536,27.432 82.372,24.84 83.056,23.58 C83.596,22.644 83.668,21.744 83.488,21.276 C83.164,20.376 82.696,20.448 82.264,21.312 C81.256,23.4 79.276,25.92 78.052,25.92 C76.972,25.92 76.108,23.94 75.964,21.24 C78.088,20.52 79.564,19.512 80.716,18.396 C81.616,17.532 81.976,16.632 81.976,15.768 C81.976,15.156 81.832,14.58 81.544,14.04 C80.752,12.384 79.78,11.808 78.16,12.384 C77.548,12.6 76.936,12.852 76.288,13.32 C78.448,9.396 80.068,6.66 80.068,5.256 C80.068,4.752 79.924,4.284 79.708,3.852 C79.312,3.096 78.736,3.096 78.16,3.816 C74.992,8.172 69.808,18.324 68.188,22.932 C67.828,23.976 67.72,24.768 67.72,25.344 C67.72,26.1 67.936,26.604 68.296,27 C68.728,27.54 69.304,27.36 69.556,26.856 C70.708,24.156 71.68,21.96 72.652,20.232 C72.652,25.272 74.812,27.36 77.476,27.396 Z M73.048,19.44 C74.128,17.64 75.136,16.344 76.36,15.408 C78.016,14.148 79.276,13.716 79.564,14.148 C79.888,14.616 79.24,15.804 77.8,16.992 C76.612,17.964 74.092,19.08 73.048,19.44 Z" id="Cook" fill-rule="nonzero"></path>
        </g>
    </g>
</svg>